<svg xmlns="http://www.w3.org/2000/svg" xmlns:xlink="http://www.w3.org/1999/xlink" width="48" zoomAndPan="magnify" viewBox="0 0 36 36.000001" height="48" preserveAspectRatio="xMidYMid meet" version="1.0"><defs><g/><clipPath id="5bb68dd408"><path d="M 4.863281 4.378906 L 31.136719 4.378906 L 31.136719 30.648438 L 4.863281 30.648438 Z M 4.863281 4.378906 " clip-rule="nonzero"/></clipPath><clipPath id="9798b19afc"><path d="M 18 4.378906 C 10.746094 4.378906 4.863281 10.257812 4.863281 17.511719 C 4.863281 24.769531 10.746094 30.648438 18 30.648438 C 25.253906 30.648438 31.136719 24.769531 31.136719 17.511719 C 31.136719 10.257812 25.253906 4.378906 18 4.378906 Z M 18 4.378906 " clip-rule="nonzero"/></clipPath><clipPath id="bf431ee03f"><path d="M 2 1 L 18 1 L 18 17 L 2 17 Z M 2 1 " clip-rule="nonzero"/></clipPath><clipPath id="fad06ea7b9"><path d="M 0.398438 3.890625 L 15.371094 0 L 19.265625 14.972656 L 4.292969 18.863281 Z M 0.398438 3.890625 " clip-rule="nonzero"/></clipPath><clipPath id="1acd5dcb40"><path d="M 7.886719 1.945312 L 11.59375 6.429688 L 17.320312 7.484375 L 12.832031 11.195312 L 11.777344 16.917969 L 8.070312 12.433594 L 2.347656 11.378906 L 6.832031 7.667969 Z M 7.886719 1.945312 " clip-rule="nonzero"/></clipPath></defs><g clip-path="url(#5bb68dd408)"><g clip-path="url(#9798b19afc)"><path fill="#bb88ed" d="M 4.863281 4.378906 L 31.136719 4.378906 L 31.136719 30.648438 L 4.863281 30.648438 Z M 4.863281 4.378906 " fill-opacity="1" fill-rule="nonzero"/></g></g><g clip-path="url(#bf431ee03f)"><g clip-path="url(#fad06ea7b9)"><g clip-path="url(#1acd5dcb40)"><path fill="#ffcf4b" d="M 0.398438 3.890625 L 15.371094 0 L 19.265625 14.972656 L 4.292969 18.863281 Z M 0.398438 3.890625 " fill-opacity="1" fill-rule="nonzero"/></g></g></g><g fill="#ffffff" fill-opacity="1"><g transform="translate(13.443277, 22.235544)"><g><path d="M 1.40625 -5.0625 L 1.609375 -6.578125 L 3.640625 -6.3125 L 3.78125 -7.375 C 3.863281 -8.019531 4.140625 -8.503906 4.609375 -8.828125 C 5.085938 -9.160156 5.6875 -9.28125 6.40625 -9.1875 L 8.578125 -8.90625 L 8.390625 -7.40625 L 6.265625 -7.6875 C 6.046875 -7.707031 5.863281 -7.671875 5.71875 -7.578125 C 5.582031 -7.484375 5.5 -7.328125 5.46875 -7.109375 L 5.34375 -6.09375 L 8.171875 -5.71875 L 7.96875 -4.203125 L 5.140625 -4.578125 L 4.46875 0.578125 L 2.765625 0.359375 L 3.4375 -4.796875 Z M 1.40625 -5.0625 "/></g></g></g><g fill="#ffffff" fill-opacity="1"><g transform="translate(20.19219, 23.117163)"><g><path d="M 4.390625 -9.3125 L 6.234375 -9.0625 L 6 -7.21875 L 5.0625 -2.53125 L 3.828125 -2.6875 L 4.15625 -7.46875 Z M 4.09375 -1.21875 L 4.453125 -1.171875 C 4.722656 -1.128906 4.9375 -1.007812 5.09375 -0.8125 C 5.25 -0.625 5.3125 -0.398438 5.28125 -0.140625 C 5.238281 0.128906 5.117188 0.332031 4.921875 0.46875 C 4.722656 0.601562 4.484375 0.648438 4.203125 0.609375 L 3.859375 0.5625 C 3.566406 0.53125 3.34375 0.421875 3.1875 0.234375 C 3.03125 0.046875 2.972656 -0.179688 3.015625 -0.453125 C 3.046875 -0.703125 3.160156 -0.898438 3.359375 -1.046875 C 3.554688 -1.191406 3.800781 -1.25 4.09375 -1.21875 Z M 4.09375 -1.21875 "/></g></g></g></svg>